<svg width="1428" height="274" viewBox="0 0 1428 274" fill="none" xmlns="http://www.w3.org/2000/svg">
<path d="M313.471 212.607V0H19.528V212.607H0V274H333V212.607H313.471ZM39.041 20.4532H293.959V212.607H39.041V20.4532ZM313.488 253.547H19.5124V233.061H313.487V253.547H313.488Z" fill="url(#paint0_linear)"/>
<path d="M132.643 79.5624L118.845 65.0998L69.7804 116.53L118.845 167.96L132.643 153.498L97.3752 116.53L132.643 79.5624Z" fill="url(#paint1_linear)"/>
<path d="M214.155 65.0998L200.357 79.5624L235.625 116.53L200.357 153.498L214.155 167.96L263.219 116.53L214.155 65.0998Z" fill="url(#paint2_linear)"/>
<path d="M168.261 54.8514L145.609 174.215L164.748 178.205L187.399 58.842L168.261 54.8514Z" fill="url(#paint3_linear)"/>
<path d="M345.816 197V94.76H355.896V188.072H414.936V197H345.816ZM458.606 198.44C451.406 198.44 444.974 196.664 439.31 193.112C433.646 189.56 429.182 184.808 425.918 178.856C422.654 172.904 421.022 166.376 421.022 159.272C421.022 152.264 422.606 145.832 425.774 139.976C429.038 134.12 433.502 129.464 439.166 126.008C444.83 122.456 451.262 120.68 458.462 120.68C465.854 120.68 472.334 122.456 477.902 126.008C483.47 129.56 487.79 134.264 490.862 140.12C494.03 145.88 495.614 152.216 495.614 159.128C495.614 160.664 495.566 161.96 495.47 163.016H431.246C431.726 168.392 433.262 173.192 435.854 177.416C438.446 181.544 441.758 184.856 445.79 187.352C449.822 189.752 454.238 190.952 459.038 190.952C463.934 190.952 468.542 189.704 472.862 187.208C477.182 184.712 480.254 181.448 482.078 177.416L490.574 179.72C489.038 183.368 486.638 186.632 483.374 189.512C480.206 192.296 476.51 194.504 472.286 196.136C468.062 197.672 463.502 198.44 458.606 198.44ZM430.958 155.96H486.398C486.014 150.584 484.526 145.832 481.934 141.704C479.342 137.48 476.03 134.216 471.998 131.912C467.966 129.512 463.502 128.312 458.606 128.312C453.71 128.312 449.246 129.512 445.214 131.912C441.182 134.216 437.87 137.48 435.278 141.704C432.782 145.832 431.342 150.584 430.958 155.96ZM542.69 198.44C535.49 198.44 529.058 196.664 523.394 193.112C517.826 189.56 513.458 184.856 510.29 179C507.122 173.048 505.538 166.616 505.538 159.704C505.538 152.696 507.122 146.264 510.29 140.408C513.554 134.456 517.97 129.704 523.538 126.152C529.202 122.504 535.586 120.68 542.69 120.68C549.89 120.68 556.274 122.504 561.842 126.152C567.506 129.704 571.922 134.456 575.09 140.408C578.354 146.264 579.986 152.696 579.986 159.704C579.986 166.616 578.402 173.048 575.234 179C572.066 184.856 567.65 189.56 561.986 193.112C556.418 196.664 549.986 198.44 542.69 198.44ZM515.474 159.848C515.474 165.416 516.674 170.504 519.074 175.112C521.57 179.624 524.882 183.224 529.01 185.912C533.138 188.504 537.698 189.8 542.69 189.8C547.682 189.8 552.242 188.456 556.37 185.768C560.498 183.08 563.81 179.432 566.306 174.824C568.802 170.216 570.05 165.128 570.05 159.56C570.05 153.992 568.802 148.904 566.306 144.296C563.81 139.688 560.498 136.04 556.37 133.352C552.242 130.664 547.682 129.32 542.69 129.32C537.794 129.32 533.282 130.712 529.154 133.496C525.026 136.184 521.714 139.832 519.218 144.44C516.722 149.048 515.474 154.184 515.474 159.848ZM659.435 197H649.643V155.096C649.643 146.264 648.299 139.832 645.611 135.8C643.019 131.672 638.987 129.608 633.515 129.608C629.675 129.608 625.883 130.568 622.139 132.488C618.395 134.312 615.083 136.856 612.203 140.12C609.419 143.288 607.403 146.936 606.155 151.064V197H596.363V121.976H605.291V138.968C608.267 133.496 612.635 129.08 618.395 125.72C624.155 122.36 630.395 120.68 637.115 120.68C642.683 120.68 647.099 122.024 650.363 124.712C653.627 127.304 655.931 131.048 657.275 135.944C658.715 140.744 659.435 146.456 659.435 153.08V197ZM674.268 175.4C674.268 170.792 675.612 166.808 678.3 163.448C680.988 159.992 684.684 157.304 689.388 155.384C694.188 153.464 699.708 152.504 705.948 152.504C709.596 152.504 713.388 152.84 717.324 153.512C721.26 154.088 724.764 154.904 727.836 155.96V149.624C727.836 143.288 725.964 138.248 722.22 134.504C718.476 130.76 713.292 128.888 706.668 128.888C702.732 128.888 698.796 129.656 694.86 131.192C690.924 132.632 686.844 134.792 682.62 137.672L678.876 130.76C683.772 127.4 688.572 124.904 693.276 123.272C697.98 121.544 702.78 120.68 707.676 120.68C716.892 120.68 724.188 123.32 729.564 128.6C734.94 133.88 737.628 141.176 737.628 150.488V185.192C737.628 187.784 738.828 189.128 741.228 189.224V197C739.116 197.288 737.628 197.384 736.764 197.288C734.364 197.192 732.54 196.424 731.292 194.984C730.044 193.544 729.372 192.008 729.276 190.376L729.132 184.904C725.772 189.224 721.404 192.584 716.028 194.984C710.652 197.288 705.18 198.44 699.612 198.44C694.716 198.44 690.348 197.432 686.508 195.416C682.668 193.304 679.644 190.52 677.436 187.064C675.324 183.512 674.268 179.624 674.268 175.4ZM724.524 181.16C726.732 178.568 727.836 176.168 727.836 173.96V163.016C721.212 160.424 714.3 159.128 707.1 159.128C700.092 159.128 694.428 160.52 690.108 163.304C685.788 166.088 683.628 169.88 683.628 174.68C683.628 178.808 685.212 182.552 688.38 185.912C691.644 189.272 696.156 190.952 701.916 190.952C706.62 190.952 710.988 190.04 715.02 188.216C719.148 186.392 722.316 184.04 724.524 181.16ZM796.224 130.616C789.696 130.808 783.936 132.632 778.944 136.088C774.048 139.544 770.592 144.296 768.576 150.344V197H758.784V121.976H768V139.976C770.592 134.696 774 130.424 778.224 127.16C782.544 123.896 787.104 122.072 791.904 121.688C792.864 121.592 793.68 121.544 794.352 121.544C795.024 121.544 795.648 121.592 796.224 121.688V130.616ZM802.26 159.704C802.26 152.6 803.7 146.12 806.58 140.264C809.556 134.312 813.636 129.56 818.82 126.008C824.004 122.456 829.908 120.68 836.532 120.68C842.772 120.68 848.34 122.36 853.236 125.72C858.228 128.984 862.116 132.968 864.9 137.672V91.88H874.692V185.192C874.692 187.784 875.844 189.128 878.148 189.224V197C876.228 197.288 874.74 197.384 873.684 197.288C871.572 197.192 869.748 196.424 868.212 194.984C866.772 193.448 866.052 191.72 866.052 189.8V182.456C863.076 187.352 859.044 191.24 853.956 194.12C848.868 197 843.588 198.44 838.116 198.44C832.932 198.44 828.132 197.384 823.716 195.272C819.3 193.16 815.46 190.28 812.196 186.632C809.028 182.984 806.58 178.856 804.852 174.248C803.124 169.544 802.26 164.696 802.26 159.704ZM864.9 171.224V148.04C863.652 144.584 861.636 141.464 858.852 138.68C856.068 135.8 852.9 133.544 849.348 131.912C845.892 130.184 842.436 129.32 838.98 129.32C833.604 129.32 828.9 130.808 824.868 133.784C820.932 136.664 817.86 140.456 815.652 145.16C813.444 149.768 812.34 154.616 812.34 159.704C812.34 165.08 813.54 170.072 815.94 174.68C818.436 179.288 821.796 182.984 826.02 185.768C830.244 188.456 834.996 189.8 840.276 189.8C843.54 189.8 846.948 188.984 850.5 187.352C854.148 185.624 857.316 183.368 860.004 180.584C862.788 177.8 864.42 174.68 864.9 171.224ZM928.846 198.44C921.646 198.44 915.214 196.664 909.55 193.112C903.982 189.56 899.614 184.856 896.446 179C893.278 173.048 891.694 166.616 891.694 159.704C891.694 152.696 893.278 146.264 896.446 140.408C899.71 134.456 904.126 129.704 909.694 126.152C915.358 122.504 921.742 120.68 928.846 120.68C936.046 120.68 942.43 122.504 947.998 126.152C953.662 129.704 958.078 134.456 961.246 140.408C964.51 146.264 966.142 152.696 966.142 159.704C966.142 166.616 964.558 173.048 961.39 179C958.222 184.856 953.806 189.56 948.142 193.112C942.574 196.664 936.142 198.44 928.846 198.44ZM901.63 159.848C901.63 165.416 902.83 170.504 905.23 175.112C907.726 179.624 911.038 183.224 915.166 185.912C919.294 188.504 923.854 189.8 928.846 189.8C933.838 189.8 938.398 188.456 942.526 185.768C946.654 183.08 949.966 179.432 952.462 174.824C954.958 170.216 956.206 165.128 956.206 159.56C956.206 153.992 954.958 148.904 952.462 144.296C949.966 139.688 946.654 136.04 942.526 133.352C938.398 130.664 933.838 129.32 928.846 129.32C923.95 129.32 919.438 130.712 915.31 133.496C911.182 136.184 907.87 139.832 905.374 144.44C902.878 149.048 901.63 154.184 901.63 159.848ZM1021.24 197V94.76H1031.32V188.072H1090.36V197H1021.24ZM1102.17 166.04V121.976H1111.97V164.312C1111.97 181.304 1117.77 189.8 1129.39 189.8C1135.15 189.8 1140.53 187.928 1145.52 184.184C1150.61 180.44 1154.25 175.448 1156.46 169.208V121.976H1166.25V185.192C1166.25 187.784 1167.41 189.128 1169.71 189.224V197C1168.56 197.192 1167.65 197.288 1166.97 197.288C1166.4 197.288 1165.77 197.288 1165.1 197.288C1163.09 197.096 1161.36 196.328 1159.92 194.984C1158.57 193.64 1157.9 192.008 1157.9 190.088L1157.61 180.008C1154.35 185.864 1149.89 190.424 1144.22 193.688C1138.65 196.856 1132.61 198.44 1126.08 198.44C1110.14 198.44 1102.17 187.64 1102.17 166.04ZM1220.94 198.44C1213.64 198.44 1207.16 196.664 1201.5 193.112C1195.83 189.464 1191.37 184.712 1188.11 178.856C1184.84 172.904 1183.21 166.376 1183.21 159.272C1183.21 152.168 1184.79 145.736 1187.96 139.976C1191.13 134.12 1195.55 129.464 1201.21 126.008C1206.87 122.456 1213.4 120.68 1220.79 120.68C1227.8 120.68 1233.95 122.312 1239.23 125.576C1244.6 128.744 1248.63 133.064 1251.32 138.536L1241.82 141.56C1239.71 137.72 1236.73 134.744 1232.89 132.632C1229.15 130.424 1224.97 129.32 1220.36 129.32C1215.27 129.32 1210.67 130.616 1206.54 133.208C1202.51 135.8 1199.24 139.4 1196.75 144.008C1194.35 148.52 1193.15 153.608 1193.15 159.272C1193.15 164.936 1194.39 170.072 1196.89 174.68C1199.39 179.288 1202.7 182.984 1206.83 185.768C1210.95 188.456 1215.51 189.8 1220.51 189.8C1223.77 189.8 1226.94 189.224 1230.01 188.072C1233.08 186.92 1235.72 185.384 1237.93 183.464C1240.14 181.448 1241.63 179.288 1242.39 176.984L1252.04 179.864C1250.7 183.416 1248.49 186.632 1245.42 189.512C1242.35 192.296 1238.7 194.504 1234.47 196.136C1230.25 197.672 1225.74 198.44 1220.94 198.44ZM1299.27 198.44C1291.97 198.44 1285.49 196.664 1279.83 193.112C1274.16 189.464 1269.7 184.712 1266.43 178.856C1263.17 172.904 1261.54 166.376 1261.54 159.272C1261.54 152.168 1263.12 145.736 1266.29 139.976C1269.46 134.12 1273.87 129.464 1279.54 126.008C1285.2 122.456 1291.73 120.68 1299.12 120.68C1306.13 120.68 1312.27 122.312 1317.55 125.576C1322.93 128.744 1326.96 133.064 1329.65 138.536L1320.15 141.56C1318.03 137.72 1315.06 134.744 1311.22 132.632C1307.47 130.424 1303.3 129.32 1298.69 129.32C1293.6 129.32 1288.99 130.616 1284.87 133.208C1280.83 135.8 1277.57 139.4 1275.07 144.008C1272.67 148.52 1271.47 153.608 1271.47 159.272C1271.47 164.936 1272.72 170.072 1275.22 174.68C1277.71 179.288 1281.03 182.984 1285.15 185.768C1289.28 188.456 1293.84 189.8 1298.83 189.8C1302.1 189.8 1305.27 189.224 1308.34 188.072C1311.41 186.92 1314.05 185.384 1316.26 183.464C1318.47 181.448 1319.95 179.288 1320.72 176.984L1330.37 179.864C1329.03 183.416 1326.82 186.632 1323.75 189.512C1320.67 192.296 1317.03 194.504 1312.8 196.136C1308.58 197.672 1304.07 198.44 1299.27 198.44ZM1339.71 175.4C1339.71 170.792 1341.05 166.808 1343.74 163.448C1346.43 159.992 1350.12 157.304 1354.83 155.384C1359.63 153.464 1365.15 152.504 1371.39 152.504C1375.03 152.504 1378.83 152.84 1382.76 153.512C1386.7 154.088 1390.2 154.904 1393.27 155.96V149.624C1393.27 143.288 1391.4 138.248 1387.66 134.504C1383.91 130.76 1378.73 128.888 1372.11 128.888C1368.17 128.888 1364.23 129.656 1360.3 131.192C1356.36 132.632 1352.28 134.792 1348.06 137.672L1344.31 130.76C1349.21 127.4 1354.01 124.904 1358.71 123.272C1363.42 121.544 1368.22 120.68 1373.11 120.68C1382.33 120.68 1389.63 123.32 1395 128.6C1400.38 133.88 1403.07 141.176 1403.07 150.488V185.192C1403.07 187.784 1404.27 189.128 1406.67 189.224V197C1404.55 197.288 1403.07 197.384 1402.2 197.288C1399.8 197.192 1397.98 196.424 1396.73 194.984C1395.48 193.544 1394.81 192.008 1394.71 190.376L1394.57 184.904C1391.21 189.224 1386.84 192.584 1381.47 194.984C1376.09 197.288 1370.62 198.44 1365.05 198.44C1360.15 198.44 1355.79 197.432 1351.95 195.416C1348.11 193.304 1345.08 190.52 1342.87 187.064C1340.76 183.512 1339.71 179.624 1339.71 175.4ZM1389.96 181.16C1392.17 178.568 1393.27 176.168 1393.27 173.96V163.016C1386.65 160.424 1379.74 159.128 1372.54 159.128C1365.53 159.128 1359.87 160.52 1355.55 163.304C1351.23 166.088 1349.07 169.88 1349.07 174.68C1349.07 178.808 1350.65 182.552 1353.82 185.912C1357.08 189.272 1361.59 190.952 1367.35 190.952C1372.06 190.952 1376.43 190.04 1380.46 188.216C1384.59 186.392 1387.75 184.04 1389.96 181.16Z" fill="url(#paint4_linear)"/>
<defs>
<linearGradient id="paint0_linear" x1="166.5" y1="0" x2="166.5" y2="274" gradientUnits="userSpaceOnUse">
<stop stop-color="#83DB02"/>
<stop offset="0.869792" stop-color="#029C00"/>
</linearGradient>
<linearGradient id="paint1_linear" x1="101.211" y1="65.0998" x2="101.211" y2="167.96" gradientUnits="userSpaceOnUse">
<stop stop-color="#83DB02"/>
<stop offset="0.869792" stop-color="#029C00"/>
</linearGradient>
<linearGradient id="paint2_linear" x1="231.788" y1="65.0998" x2="231.788" y2="167.96" gradientUnits="userSpaceOnUse">
<stop stop-color="#83DB02"/>
<stop offset="0.869792" stop-color="#029C00"/>
</linearGradient>
<linearGradient id="paint3_linear" x1="156.935" y1="114.533" x2="176.139" y2="118.177" gradientUnits="userSpaceOnUse">
<stop stop-color="#83DB02"/>
<stop offset="0.869792" stop-color="#029C00"/>
</linearGradient>
<linearGradient id="paint4_linear" x1="880.5" y1="62" x2="880.5" y2="212" gradientUnits="userSpaceOnUse">
<stop stop-color="#013F00"/>
<stop offset="1" stop-color="#BAF800"/>
</linearGradient>
</defs>
</svg>
